<?xml version="1.0" encoding="utf-8"?>
<!-- Generator: Adobe Illustrator 24.0.0, SVG Export Plug-In . SVG Version: 6.00 Build 0)  -->
<svg version="1.1" id="Calque_1" xmlns="http://www.w3.org/2000/svg" xmlns:xlink="http://www.w3.org/1999/xlink" x="0px" y="0px"
	 viewBox="0 0 798 266.6" style="enable-background:new 0 0 798 266.6;" xml:space="preserve">
<style type="text/css">
	.st0{fill:#FCD4B9;}
	.st1{fill:#EBB793;}
	.st2{fill:#FEE9D2;}
	.st3{fill:#FFFFFF;}
</style>
<path class="st0" d="M205.5,18.2c0,0,2.5,1.1,2.5,6.3s6.3,76.7-37.4,75.6C127,98.9,175.6,26.3,205.5,18.2z"/>
<path class="st0" d="M153.7,241.4c9.5-15.3,16.7-25.7,40.5-50.9c23.9-25.2,26.6-41.9,28.4-68.9s0.5-45.5,9.9-64.4
	c7.1-14.2,13.2-38.9,6.7-49.9l-0.9-0.6c0,0,3.8,16-4.6,35.8s-13.7,27.8-17.2,65.6c-3.4,37.7-21.3,72.4-47.7,77.8l-51.4,80.5h24.2
	C141.6,266.4,144.3,256.7,153.7,241.4z"/>
<path class="st1" d="M236.5,4.2c0,0,5.1,3.4,5.7,12.7s-1.7,25.7-11.9,45.5s-4.6,29.4-7.6,64.4S202.4,183,188,198.1
	c-16.7,17.5-33.8,35.1-46,68.3h-2.3c0,0,10.2-37.4,46.4-69.8s36.2-72.4,35.5-94.5s3.8-30.9,8.8-44.2C235.2,44.5,246.5,25,236.5,4.2
	L236.5,4.2z"/>
<path class="st0" d="M174,79c0,0-0.8-7.1-6.5-10.3c0,0,4.4-1,8.6,2.9c0,0,2.7,6.7,4.8,10.5c0,0-12,4-14.7,13.3
	c0,0,1.1-10.7,7.6-13.2c0,0-7.8-3-14.3-1.3C159.6,80.9,166.4,77.1,174,79L174,79z"/>
<path class="st0" d="M592.8,18.2c0,0-2.5,1.1-2.5,6.3s-6.3,76.7,37.4,75.6C671.4,98.9,622.8,26.3,592.8,18.2z"/>
<path class="st0" d="M644.6,241.4c-9.5-15.3-16.7-25.7-40.5-50.9c-23.9-25.2-26.6-41.9-28.4-68.9s-0.5-45.5-9.9-64.4
	c-7.1-14.2-13.2-38.9-6.7-49.9l0.9-0.6c0,0-3.8,16,4.6,35.8s13.7,27.8,17.2,65.6c3.4,37.7,21.3,72.4,47.7,77.8l51.4,80.5h-24.3
	C656.6,266.4,654,256.7,644.6,241.4z"/>
<path class="st1" d="M561.8,4.2c0,0-5.1,3.4-5.7,12.7s1.7,25.7,11.9,45.5c10.3,19.8,4.6,29.4,7.6,64.4c3,35.1,21,55.6,34.7,71.3
	c14.1,16.1,34.1,35.1,46.3,68.3h2.3c0,0-10.5-37.4-46.7-69.8s-36.2-72.4-35.5-94.5s-3.8-30.9-8.8-44.2
	C563.1,44.5,551.8,25,561.8,4.2L561.8,4.2z"/>
<g>
	<g>
		<path class="st2" d="M178,87.5c0,0,13.5-5.8,18-29.3c4.5-23.4,10.4-54.9,32-56.3c21.6-1.3,14,36.5,4.5,55.4s-8.1,37.4-9.9,64.4
			s-4.5,43.7-28.4,68.9s-31.1,35.6-40.5,50.9c-9.5,15.3-12.1,25-12.1,25H0c0,0,107.8-57,116.8-112.4s-2.3-83.3,18.9-98.6
			s44.6-32.4,52.7-38.7c0,0,7.4-5.6,17.1,1.4c0,0-6.1,13.7-7.2,21.4s-8.8,17.8-15.1,22.5C183.2,62,166.8,76.2,178,87.5L178,87.5z"/>
		<path class="st3" d="M232.4,27.8c0,0-6.9-7.7-23.8-5.6l11.3-21.5c0,0,14.1-3.8,18.7,6.5L232.4,27.8z"/>
	</g>
	<g>
		<path class="st2" d="M620.3,87.5c0,0-13.5-5.8-18-29.3c-4.5-23.4-10.4-54.9-32-56.3c-21.6-1.3-14,36.5-4.5,55.4s8.1,37.4,9.9,64.4
			s4.5,43.7,28.4,68.9s31.1,35.6,40.5,50.9c9.5,15.3,14.7,25.1,14.7,25.1H798c0,0-107.5-57-116.5-112.4s2.3-83.3-18.9-98.6
			S618,23.2,609.9,16.9c0,0-7.4-5.6-17.1,1.4c0,0,6.1,13.7,7.2,21.4s8.8,17.8,15.1,22.5C615.1,62,631.5,76.2,620.3,87.5L620.3,87.5z
			"/>
		<path class="st3" d="M566,27.8c0,0,6.9-7.7,23.8-5.6L578.5,0.7c0,0-14.1-3.8-18.7,6.5L566,27.8z"/>
	</g>
</g>
<path class="st0" d="M624.3,79c0,0,0.8-7.1,6.5-10.3c0,0-4.4-1-8.6,2.9c0,0-2.7,6.7-4.8,10.5c0,0,12,4,14.7,13.3
	c0,0-1.1-10.7-7.6-13.2c0,0,7.8-3,14.3-1.3C638.8,80.9,631.9,77.1,624.3,79L624.3,79z"/>
</svg>
