<?xml version="1.0" encoding="utf-8"?>
<!-- Generator: Adobe Illustrator 24.0.0, SVG Export Plug-In . SVG Version: 6.00 Build 0)  -->
<svg version="1.1" id="Calque_1" xmlns="http://www.w3.org/2000/svg" xmlns:xlink="http://www.w3.org/1999/xlink" x="0px" y="0px"
	 viewBox="0 0 405.4 423.1" style="enable-background:new 0 0 405.4 423.1;" xml:space="preserve">
<style type="text/css">
	.st0{fill:url(#SVGID_1_);}
	.st1{fill:url(#SVGID_2_);}
	.st2{fill:url(#SVGID_3_);}
	.st3{fill:url(#SVGID_4_);}
</style>
<g>
	
		<linearGradient id="SVGID_1_" gradientUnits="userSpaceOnUse" x1="419.7847" y1="179.4137" x2="20.6747" y2="179.4137" gradientTransform="matrix(0.9996 -2.870000e-02 -2.870000e-02 -0.9996 -10.9373 392.4736)">
		<stop  offset="0" style="stop-color:#939599"/>
		<stop  offset="0.9179" style="stop-color:#F1F2F2"/>
		<stop  offset="0.9365" style="stop-color:#E7E8E9"/>
		<stop  offset="0.9691" style="stop-color:#CACBCC"/>
		<stop  offset="1" style="stop-color:#A7A9AB"/>
	</linearGradient>
	<polygon class="st0" points="0,0.8 10.2,236.3 12,423 405.4,412.9 389.2,256.8 386.4,0 	"/>
	
		<linearGradient id="SVGID_2_" gradientUnits="userSpaceOnUse" x1="402.01" y1="216.2" x2="-1.4" y2="216.2" gradientTransform="matrix(1 0 0 -1 0 426)">
		<stop  offset="0" style="stop-color:#BDBEC0"/>
		<stop  offset="0.9179" style="stop-color:#F1F2F2"/>
		<stop  offset="0.9365" style="stop-color:#E7E8E9"/>
		<stop  offset="0.9691" style="stop-color:#CACBCC"/>
		<stop  offset="1" style="stop-color:#A7A9AB"/>
	</linearGradient>
	<polygon class="st1" points="0,0.8 9.3,232.1 4.1,418.8 397.8,417.2 387.4,261 394.1,4.2 	"/>
	
		<linearGradient id="SVGID_3_" gradientUnits="userSpaceOnUse" x1="376.1406" y1="269.4616" x2="-34.8194" y2="269.4616" gradientTransform="matrix(0.9991 4.200000e-02 4.200000e-02 -0.9991 13.4277 476.4063)">
		<stop  offset="0" style="stop-color:#D1D2D4"/>
		<stop  offset="0.9179" style="stop-color:#F1F2F2"/>
		<stop  offset="0.9365" style="stop-color:#E7E8E9"/>
		<stop  offset="0.9691" style="stop-color:#CACBCC"/>
		<stop  offset="1" style="stop-color:#A7A9AB"/>
	</linearGradient>
	<polygon class="st2" points="0,0.8 8.3,226 4.1,418.8 386.3,423.1 384.4,267 405.2,10.7 	"/>
	
		<linearGradient id="SVGID_4_" gradientUnits="userSpaceOnUse" x1="402.01" y1="216.2" x2="-1.4" y2="216.2" gradientTransform="matrix(1 0 0 -1 0 426)">
		<stop  offset="0" style="stop-color:#E7E8E9"/>
		<stop  offset="0.9179" style="stop-color:#F1F2F2"/>
		<stop  offset="0.9537" style="stop-color:#E7E8E9"/>
		<stop  offset="1" style="stop-color:#D1D2D4"/>
	</linearGradient>
	<polygon class="st3" points="391.9,91.2 387.4,261 397.8,417.2 4.1,418.8 9.3,232.1 0,0.8 258.6,3 	"/>
</g>
</svg>
